<mxfile host="app.diagrams.net" modified="2024-07-05T15:14:58.776Z" agent="Mozilla/5.0 (Windows NT 10.0; Win64; x64) AppleWebKit/537.36 (KHTML, like Gecko) Chrome/126.0.0.0 Safari/537.36" version="24.6.4" etag="yLNRB2JUV7YZacdRHMj6" type="github">
  <diagram name="Page-1" id="N-SkPEH7lvUO9s-9O1nf">
    <mxGraphModel>
      <root>
        <mxCell id="0" />
        <mxCell id="1" parent="0" />
      </root>
    </mxGraphModel>
  </diagram>
</mxfile>
